{"title":"W.imie.AKA.In.the.name.of.2013.DVDRip.x264.mkv","uid":9918513,"size":1573284126,"categoryP":"video","categoryS":"movies","magnet":"?xt=urn:btih:cb1fd49ac6d7ac5c0438ca1cae52d7de82aa3691&amp;dn=W.imie.AKA.In.the.name.of.2013.DVDRip.x264.mkv&amp;tr=udp%3A%2F%2Ftracker.openbittorrent.com%3A80&amp;tr=udp%3A%2F%2Fopen.demonii.com%3A1337&amp;tr=udp%3A%2F%2Ftracker.coppersurfer.tk%3A6969&amp;tr=udp%3A%2F%2Fexodus.desync.com%3A6969","seeders":4,"leechers":1,"uploader":"rpessoa","files":1,"time":1396976514,"description":"Adam is a Catholic priest who discovered his calling as a servant of God at the relatively late age of 21. He now lives in a village in rural Poland where he works with teenagers with behavioral problems who fight and yell abuse. He declines the advances of a young brunette named Ewa; saying he is already spoken for. However; celibacy is not the only reason for his rejection. Adam knows that he desires men and that his embrace of the priesthood has been a flight from his own sexuality. When he meets Dynia; the strange and taciturn son of a simple rural family; Adam's self-imposed abstinence becomes a heavy burden. From IMDB\n\nSubs: English\n\nWinner Teddy Award Berlinale 2013\n &lt;a href=&quot;\nhttp://www.imdb.com/title/tt2650642/&quot; rel=&quot;nofollow&quot; target=&quot;_NEW&quot;&gt;\nhttp://www.imdb.com/title/tt2650642/&lt;/a&gt;\n\nGeneral\nUnique ID                                : 172983867077750992692794104372358556669 (0x82237B1F8B9D956188CC9B1381542BFD)\nComplete name                            : W.imie.AKA.In.the.name.of.2013.DVDRip.x264.mkv\nFormat                                   : Matroska\nFormat version                           : Version 4 / Version 2\nFile size                                : 1.47 GiB\nDuration                                 : 1h 37mn\nOverall bit rate                         : 2 148 Kbps\nEncoded date                             : UTC 2014-02-25 16:39:33\nWriting application                      : mkvmerge v6.3.0 ('You can't stop me!') built on Jun 28 2013 20:09:41\nWriting library                          : libebml v1.3.0 + libmatroska v1.4.0\n\nVideo\nID                                       : 1\nFormat                                   : AVC\nFormat/Info                              : Advanced Video Codec\nFormat profile                           : &lt;a class=&quot;__cf_email__&quot; href=&quot;/cdn-cgi/l/email-protection&quot; data-cfemail=&quot;da92b3bdb29a96e9f4eb&quot;&gt;[email&amp;#160;protected]&lt;/a&gt;&lt;script cf-hash='f9e31' type=&quot;text/javascript&quot;&gt;\n/* &lt;![CDATA[ */!function(){try{var t=&quot;currentScript&quot;in document?document.currentScript:function(){for(var t=document.getElementsByTagName(&quot;script&quot;),e=t.length;e--;)if(t[e].getAttribute(&quot;cf-hash&quot;))return t[e]}();if(t&amp;&amp;t.previousSibling){var e,r,n,i,c=t.previousSibling,a=c.getAttribute(&quot;data-cfemail&quot;);if(a){for(e=&quot;&quot;,r=parseInt(a.substr(0,2),16),n=2;a.length-n;n+=2)i=parseInt(a.substr(n,2),16)^r,e+=String.fromCharCode(i);e=document.createTextNode(e),c.parentNode.replaceChild(e,c)}}}catch(u){}}();/* ]]&gt; */&lt;/script&gt;\nFormat settings, CABAC                   : Yes\nFormat settings, ReFrames                : 11 frames\nCodec ID                                 : V_MPEG4/ISO/AVC\nDuration                                 : 1h 37mn\nBit rate                                 : 1 881 Kbps\nWidth                                    : 720 pixels\nHeight                                   : 434 pixels\nDisplay aspect ratio                     : 2.35:1\nFrame rate                               : 25.000 fps\nColor space                              : YUV\nChroma subsampling                       : 4:2:0\nBit depth                                : 8 bits\nScan type                                : Progressive\nBits/(Pixel*Frame)                       : 0.241\nStream size                              : 1.28 GiB (88%)\nWriting library                          : x264 core 140 r2377 1ca7bb9\nEncoding settings                        : cabac=1 / ref=11 / deblock=1:-3:-3 / analyse=0x3:0x113 / me=umh / subme=11 / psy=1 / psy_rd=0.95:0.05 / mixed_ref=1 / me_range=32 / chroma_me=1 / trellis=2 / 8x8dct=1 / cqm=0 / deadzone=21,11 / fast_pskip=0 / chroma_qp_offset=-3 / threads=12 / lookahead_threads=2 / sliced_threads=0 / nr=0 / decimate=1 / interlaced=0 / bluray_compat=0 / constrained_intra=0 / bframes=9 / b_pyramid=2 / b_adapt=2 / b_bias=0 / direct=3 / weightb=1 / open_gop=0 / weightp=2 / keyint=250 / keyint_min=25 / scenecut=40 / intra_refresh=0 / rc_lookahead=60 / rc=crf / mbtree=1 / crf=16.5 / qcomp=0.70 / qpmin=0 / qpmax=69 / qpstep=4 / ip_ratio=1.40 / aq=2:0.90\nLanguage                                 : English\nDefault                                  : Yes\nForced                                   : No\n\nAudio\nID                                       : 2\nFormat                                   : AC-3\nFormat/Info                              : Audio Coding 3\nMode extension                           : CM (complete main)\nCodec ID                                 : A_AC3\nDuration                                 : 1h 37mn\nBit rate mode                            : Constant\nBit rate                                 : 224 Kbps\nChannel(s)                               : 2 channels\nChannel positions                        : Front: L R\nSampling rate                            : 48.0 KHz\nBit depth                                : 16 bits\nCompression mode                         : Lossy\nStream size                              : 156 MiB (10%)\nLanguage                                 : Polish\nDefault                                  : Yes\nForced                                   : No\n\nText\nID                                       : 3\nFormat                                   : UTF-8\nCodec ID                                 : S_TEXT/UTF8\nCodec ID/Info                            : UTF-8 Plain Text\nLanguage                                 : English\nDefault                                  : Yes\nForced                                   : No\n\nMenu\n00:00:00.000                             : en:Chapter 1\n00:07:19.640                             : en:Chapter 2\n00:14:42.200                             : en:Chapter 3\n00:24:01.320                             : en:Chapter 4\n00:30:23.560                             : en:Chapter 5\n00:38:29.920                             : en:Chapter 6\n00:45:44.760                             : en:Chapter 7\n00:53:41.520                             : en:Chapter 8\n01:02:22.520                             : en:Chapter 9\n01:12:13.760                             : en:Chapter 10\n01:21:34.160                             : en:Chapter 11\n01:33:28.200                             : en:Chapter 12\n\nMy rip.","torrent":{"xt":"urn:btih:cb1fd49ac6d7ac5c0438ca1cae52d7de82aa3691","amp;dn":"W.imie.AKA.In.the.name.of.2013.DVDRip.x264.mkv","amp;tr":["udp%3A%2F%2Ftracker.openbittorrent.com%3A80","udp%3A%2F%2Fopen.demonii.com%3A1337","udp%3A%2F%2Ftracker.coppersurfer.tk%3A6969","udp%3A%2F%2Fexodus.desync.com%3A6969"],"infoHash":"cb1fd49ac6d7ac5c0438ca1cae52d7de82aa3691","infoHashBuffer":{"type":"Buffer","data":[203,31,212,154,198,215,172,92,4,56,202,28,174,82,215,222,130,170,54,145]},"announce":[],"urlList":[]}}